<svg width="116" height="39" viewBox="0 0 116 39" fill="none" xmlns="http://www.w3.org/2000/svg">
<g clip-path="url(#clip0_129_394)">
<path d="M29.4308 5.59269H26.179V2.8835C26.179 1.29484 24.9245 0 23.3855 0H11.285C9.74595 0 8.49152 1.29484 8.49152 2.8835V5.59269H5.23965C2.34964 5.59269 0 8.01802 0 11.0011V24.4475C0 27.4306 2.34964 29.8609 5.24448 29.8609H11.6421L12.1004 27.1069H5.24448C3.82601 27.1069 2.66807 25.9166 2.66807 24.4475V11.0011C2.66807 9.53696 3.82118 8.34173 5.24448 8.34173H15.111L16.2207 10.2491C16.3751 10.518 16.4378 10.8368 16.3848 11.1455L13.736 27.1019L13.2777 29.8559L13.1088 30.8868C13.0605 31.1756 13.1088 31.4745 13.2439 31.7334L16.2207 37.4456C16.7032 38.367 17.9866 38.367 18.4642 37.4456L21.4411 31.7334C21.5762 31.4745 21.6196 31.1806 21.5762 30.8868L21.4073 29.8559L20.949 27.1019L18.3002 11.1455C18.2471 10.8368 18.305 10.518 18.4642 10.2491L19.5739 8.34173H29.4405C30.859 8.34173 32.0169 9.53198 32.0169 11.0011V24.4475C32.0169 25.9116 30.8638 27.1069 29.4405 27.1069H22.5846L23.0429 29.8609H29.4405C32.3305 29.8609 34.685 27.4356 34.685 24.4475V11.0011C34.685 8.01802 32.3353 5.58771 29.4405 5.58771L29.4308 5.59269ZM11.1596 2.8835C11.1596 2.81378 11.2175 2.75401 11.285 2.75401H23.3855C23.453 2.75401 23.5109 2.81378 23.5109 2.8835V5.59269H21.4314C21.388 5.39349 21.3156 5.19926 21.2095 5.015C20.8332 4.32774 20.1529 3.91937 19.3858 3.91937H15.2751C14.5128 3.91937 13.8325 4.32774 13.4513 5.015C13.35 5.19926 13.2777 5.39349 13.2294 5.59269H11.1499V2.8835H11.1596Z" fill="#455BEF"/>
</g>
<path d="M45.888 20.328C45.888 19 46.16 17.824 46.704 16.8C47.264 15.776 48.016 14.984 48.96 14.424C49.92 13.848 50.976 13.56 52.128 13.56C53.168 13.56 54.072 13.768 54.84 14.184C55.624 14.584 56.248 15.088 56.712 15.696V13.776H59.472V27H56.712V25.032C56.248 25.656 55.616 26.176 54.816 26.592C54.016 27.008 53.104 27.216 52.08 27.216C50.944 27.216 49.904 26.928 48.96 26.352C48.016 25.76 47.264 24.944 46.704 23.904C46.16 22.848 45.888 21.656 45.888 20.328ZM56.712 20.376C56.712 19.464 56.52 18.672 56.136 18C55.768 17.328 55.28 16.816 54.672 16.464C54.064 16.112 53.408 15.936 52.704 15.936C52 15.936 51.344 16.112 50.736 16.464C50.128 16.8 49.632 17.304 49.248 17.976C48.88 18.632 48.696 19.416 48.696 20.328C48.696 21.24 48.88 22.04 49.248 22.728C49.632 23.416 50.128 23.944 50.736 24.312C51.36 24.664 52.016 24.84 52.704 24.84C53.408 24.84 54.064 24.664 54.672 24.312C55.28 23.96 55.768 23.448 56.136 22.776C56.52 22.088 56.712 21.288 56.712 20.376ZM65.8016 15.72C66.2656 15.112 66.8976 14.6 67.6976 14.184C68.4976 13.768 69.4016 13.56 70.4096 13.56C71.5616 13.56 72.6096 13.848 73.5536 14.424C74.5136 14.984 75.2656 15.776 75.8096 16.8C76.3536 17.824 76.6256 19 76.6256 20.328C76.6256 21.656 76.3536 22.848 75.8096 23.904C75.2656 24.944 74.5136 25.76 73.5536 26.352C72.6096 26.928 71.5616 27.216 70.4096 27.216C69.4016 27.216 68.5056 27.016 67.7216 26.616C66.9376 26.2 66.2976 25.688 65.8016 25.08V33.288H63.0656V13.776H65.8016V15.72ZM73.8416 20.328C73.8416 19.416 73.6496 18.632 73.2656 17.976C72.8976 17.304 72.4016 16.8 71.7776 16.464C71.1696 16.112 70.5136 15.936 69.8096 15.936C69.1216 15.936 68.4656 16.112 67.8416 16.464C67.2336 16.816 66.7376 17.328 66.3536 18C65.9856 18.672 65.8016 19.464 65.8016 20.376C65.8016 21.288 65.9856 22.088 66.3536 22.776C66.7376 23.448 67.2336 23.96 67.8416 24.312C68.4656 24.664 69.1216 24.84 69.8096 24.84C70.5136 24.84 71.1696 24.664 71.7776 24.312C72.4016 23.944 72.8976 23.416 73.2656 22.728C73.6496 22.04 73.8416 21.24 73.8416 20.328ZM82.0673 15.72C82.5313 15.112 83.1633 14.6 83.9633 14.184C84.7633 13.768 85.6673 13.56 86.6753 13.56C87.8273 13.56 88.8753 13.848 89.8193 14.424C90.7793 14.984 91.5313 15.776 92.0753 16.8C92.6193 17.824 92.8913 19 92.8913 20.328C92.8913 21.656 92.6193 22.848 92.0753 23.904C91.5313 24.944 90.7793 25.76 89.8193 26.352C88.8753 26.928 87.8273 27.216 86.6753 27.216C85.6673 27.216 84.7713 27.016 83.9873 26.616C83.2033 26.2 82.5633 25.688 82.0673 25.08V33.288H79.3313V13.776H82.0673V15.72ZM90.1073 20.328C90.1073 19.416 89.9153 18.632 89.5312 17.976C89.1633 17.304 88.6673 16.8 88.0433 16.464C87.4353 16.112 86.7793 15.936 86.0753 15.936C85.3873 15.936 84.7313 16.112 84.1073 16.464C83.4993 16.816 83.0033 17.328 82.6193 18C82.2513 18.672 82.0673 19.464 82.0673 20.376C82.0673 21.288 82.2513 22.088 82.6193 22.776C83.0033 23.448 83.4993 23.96 84.1073 24.312C84.7313 24.664 85.3873 24.84 86.0753 24.84C86.7793 24.84 87.4353 24.664 88.0433 24.312C88.6673 23.944 89.1633 23.416 89.5312 22.728C89.9153 22.04 90.1073 21.24 90.1073 20.328Z" fill="black"/>
<path d="M98.3329 9.24V27H95.5969V9.24H98.3329ZM113.829 13.776L105.717 33.216H102.885L105.573 26.784L100.365 13.776H103.413L107.133 23.856L110.997 13.776H113.829Z" fill="#455BEF"/>
<defs>
<clipPath id="clip0_129_394">
<rect width="34.6753" height="38.1429" fill="white"/>
</clipPath>
</defs>
</svg>
