<svg width="182" height="39" viewBox="0 0 182 39" fill="none" xmlns="http://www.w3.org/2000/svg">
<g clip-path="url(#clip0_86_419)">
<path d="M29.4308 5.59269H26.179V2.8835C26.179 1.29484 24.9245 0 23.3855 0H11.285C9.74595 0 8.49152 1.29484 8.49152 2.8835V5.59269H5.23965C2.34964 5.59269 0 8.01802 0 11.0011V24.4475C0 27.4306 2.34964 29.8609 5.24448 29.8609H11.6421L12.1004 27.1069H5.24448C3.82601 27.1069 2.66807 25.9166 2.66807 24.4475V11.0011C2.66807 9.53696 3.82118 8.34173 5.24448 8.34173H15.111L16.2207 10.2491C16.3751 10.518 16.4378 10.8368 16.3848 11.1455L13.736 27.1019L13.2777 29.8559L13.1088 30.8868C13.0605 31.1756 13.1088 31.4745 13.2439 31.7334L16.2207 37.4456C16.7032 38.367 17.9866 38.367 18.4642 37.4456L21.4411 31.7334C21.5762 31.4745 21.6196 31.1806 21.5762 30.8868L21.4073 29.8559L20.949 27.1019L18.3002 11.1455C18.2471 10.8368 18.305 10.518 18.4642 10.2491L19.5739 8.34173H29.4405C30.859 8.34173 32.0169 9.53198 32.0169 11.0011V24.4475C32.0169 25.9116 30.8638 27.1069 29.4405 27.1069H22.5846L23.0429 29.8609H29.4405C32.3305 29.8609 34.685 27.4356 34.685 24.4475V11.0011C34.685 8.01802 32.3353 5.58771 29.4405 5.58771L29.4308 5.59269ZM11.1596 2.8835C11.1596 2.81378 11.2175 2.75401 11.285 2.75401H23.3855C23.453 2.75401 23.5109 2.81378 23.5109 2.8835V5.59269H21.4314C21.388 5.39349 21.3156 5.19926 21.2095 5.015C20.8332 4.32774 20.1529 3.91937 19.3858 3.91937H15.2751C14.5128 3.91937 13.8325 4.32774 13.4513 5.015C13.35 5.19926 13.2777 5.39349 13.2294 5.59269H11.1499V2.8835H11.1596Z" fill="#455BEF"/>
</g>
<path d="M45.888 20.328C45.888 19 46.16 17.824 46.704 16.8C47.264 15.776 48.016 14.984 48.96 14.424C49.92 13.848 50.984 13.56 52.152 13.56C53.016 13.56 53.864 13.752 54.696 14.136C55.544 14.504 56.216 15 56.712 15.624V9.24H59.472V27H56.712V25.008C56.264 25.648 55.64 26.176 54.84 26.592C54.056 27.008 53.152 27.216 52.128 27.216C50.976 27.216 49.92 26.928 48.96 26.352C48.016 25.76 47.264 24.944 46.704 23.904C46.16 22.848 45.888 21.656 45.888 20.328ZM56.712 20.376C56.712 19.464 56.52 18.672 56.136 18C55.768 17.328 55.28 16.816 54.672 16.464C54.064 16.112 53.408 15.936 52.704 15.936C52 15.936 51.344 16.112 50.736 16.464C50.128 16.8 49.632 17.304 49.248 17.976C48.88 18.632 48.696 19.416 48.696 20.328C48.696 21.24 48.88 22.04 49.248 22.728C49.632 23.416 50.128 23.944 50.736 24.312C51.36 24.664 52.016 24.84 52.704 24.84C53.408 24.84 54.064 24.664 54.672 24.312C55.28 23.96 55.768 23.448 56.136 22.776C56.52 22.088 56.712 21.288 56.712 20.376ZM75.1856 20.064C75.1856 20.56 75.1536 21.008 75.0896 21.408H64.9856C65.0656 22.464 65.4576 23.312 66.1616 23.952C66.8656 24.592 67.7296 24.912 68.7536 24.912C70.2256 24.912 71.2656 24.296 71.8736 23.064H74.8256C74.4256 24.28 73.6976 25.28 72.6416 26.064C71.6016 26.832 70.3056 27.216 68.7536 27.216C67.4896 27.216 66.3536 26.936 65.3456 26.376C64.3536 25.8 63.5696 25 62.9936 23.976C62.4336 22.936 62.1536 21.736 62.1536 20.376C62.1536 19.016 62.4256 17.824 62.9696 16.8C63.5296 15.76 64.3056 14.96 65.2976 14.4C66.3056 13.84 67.4576 13.56 68.7536 13.56C70.0016 13.56 71.1136 13.832 72.0896 14.376C73.0656 14.92 73.8256 15.688 74.3696 16.68C74.9136 17.656 75.1856 18.784 75.1856 20.064ZM72.3296 19.2C72.3136 18.192 71.9536 17.384 71.2496 16.776C70.5456 16.168 69.6736 15.864 68.6336 15.864C67.6896 15.864 66.8816 16.168 66.2096 16.776C65.5376 17.368 65.1376 18.176 65.0096 19.2H72.3296ZM81.0701 16.008V23.328C81.0701 23.824 81.1821 24.184 81.4061 24.408C81.6461 24.616 82.0461 24.72 82.6061 24.72H84.2861V27H82.1261C80.8941 27 79.9501 26.712 79.2941 26.136C78.6381 25.56 78.3101 24.624 78.3101 23.328V16.008H76.7501V13.776H78.3101V10.488H81.0701V13.776H84.2861V16.008H81.0701Z" fill="black"/>
<path d="M85.8958 20.328C85.8958 19 86.1678 17.824 86.7118 16.8C87.2718 15.776 88.0238 14.984 88.9678 14.424C89.9278 13.848 90.9838 13.56 92.1358 13.56C93.1758 13.56 94.0798 13.768 94.8478 14.184C95.6318 14.584 96.2558 15.088 96.7198 15.696V13.776H99.4798V27H96.7198V25.032C96.2558 25.656 95.6238 26.176 94.8238 26.592C94.0238 27.008 93.1118 27.216 92.0878 27.216C90.9518 27.216 89.9118 26.928 88.9678 26.352C88.0238 25.76 87.2718 24.944 86.7118 23.904C86.1678 22.848 85.8958 21.656 85.8958 20.328ZM96.7198 20.376C96.7198 19.464 96.5278 18.672 96.1438 18C95.7758 17.328 95.2878 16.816 94.6798 16.464C94.0718 16.112 93.4158 15.936 92.7118 15.936C92.0078 15.936 91.3518 16.112 90.7438 16.464C90.1358 16.8 89.6398 17.304 89.2558 17.976C88.8878 18.632 88.7038 19.416 88.7038 20.328C88.7038 21.24 88.8878 22.04 89.2558 22.728C89.6398 23.416 90.1358 23.944 90.7438 24.312C91.3678 24.664 92.0238 24.84 92.7118 24.84C93.4158 24.84 94.0718 24.664 94.6798 24.312C95.2878 23.96 95.7758 23.448 96.1438 22.776C96.5278 22.088 96.7198 21.288 96.7198 20.376ZM104.465 12.024C103.969 12.024 103.553 11.856 103.217 11.52C102.881 11.184 102.713 10.768 102.713 10.272C102.713 9.776 102.881 9.36 103.217 9.024C103.553 8.688 103.969 8.52 104.465 8.52C104.945 8.52 105.353 8.688 105.689 9.024C106.025 9.36 106.193 9.776 106.193 10.272C106.193 10.768 106.025 11.184 105.689 11.52C105.353 11.856 104.945 12.024 104.465 12.024ZM105.809 13.776V27H103.073V13.776H105.809ZM112.138 9.24V27H109.402V9.24H112.138ZM120.53 27.216C119.49 27.216 118.554 27.032 117.722 26.664C116.906 26.28 116.258 25.768 115.778 25.128C115.298 24.472 115.042 23.744 115.01 22.944H117.842C117.89 23.504 118.154 23.976 118.634 24.36C119.13 24.728 119.746 24.912 120.482 24.912C121.25 24.912 121.842 24.768 122.258 24.48C122.69 24.176 122.906 23.792 122.906 23.328C122.906 22.832 122.666 22.464 122.186 22.224C121.722 21.984 120.978 21.72 119.954 21.432C118.962 21.16 118.154 20.896 117.53 20.64C116.906 20.384 116.362 19.992 115.898 19.464C115.45 18.936 115.226 18.24 115.226 17.376C115.226 16.672 115.434 16.032 115.85 15.456C116.266 14.864 116.858 14.4 117.626 14.064C118.41 13.728 119.306 13.56 120.314 13.56C121.818 13.56 123.026 13.944 123.938 14.712C124.866 15.464 125.362 16.496 125.426 17.808H122.69C122.642 17.216 122.402 16.744 121.97 16.392C121.538 16.04 120.954 15.864 120.218 15.864C119.498 15.864 118.946 16 118.562 16.272C118.178 16.544 117.986 16.904 117.986 17.352C117.986 17.704 118.114 18 118.37 18.24C118.626 18.48 118.938 18.672 119.306 18.816C119.674 18.944 120.218 19.112 120.938 19.32C121.898 19.576 122.682 19.84 123.29 20.112C123.914 20.368 124.45 20.752 124.898 21.264C125.346 21.776 125.578 22.456 125.594 23.304C125.594 24.056 125.386 24.728 124.97 25.32C124.554 25.912 123.962 26.376 123.194 26.712C122.442 27.048 121.554 27.216 120.53 27.216Z" fill="#455BEF"/>
<defs>
<clipPath id="clip0_86_419">
<rect width="34.6753" height="38.1429" fill="white"/>
</clipPath>
</defs>
</svg>
