<svg width="152" height="39" viewBox="0 0 152 39" fill="none" xmlns="http://www.w3.org/2000/svg">
<g clip-path="url(#clip0_121_276)">
<path d="M29.4308 5.59269H26.179V2.8835C26.179 1.29484 24.9245 0 23.3855 0H11.285C9.74595 0 8.49152 1.29484 8.49152 2.8835V5.59269H5.23965C2.34964 5.59269 0 8.01802 0 11.0011V24.4475C0 27.4306 2.34964 29.8609 5.24448 29.8609H11.6421L12.1004 27.1069H5.24448C3.82601 27.1069 2.66807 25.9166 2.66807 24.4475V11.0011C2.66807 9.53696 3.82118 8.34173 5.24448 8.34173H15.111L16.2207 10.2491C16.3751 10.518 16.4378 10.8368 16.3848 11.1455L13.736 27.1019L13.2777 29.8559L13.1088 30.8868C13.0605 31.1756 13.1088 31.4745 13.2439 31.7334L16.2207 37.4456C16.7032 38.367 17.9866 38.367 18.4642 37.4456L21.4411 31.7334C21.5762 31.4745 21.6196 31.1806 21.5762 30.8868L21.4073 29.8559L20.949 27.1019L18.3002 11.1455C18.2471 10.8368 18.305 10.518 18.4642 10.2491L19.5739 8.34173H29.4405C30.859 8.34173 32.0169 9.53198 32.0169 11.0011V24.4475C32.0169 25.9116 30.8638 27.1069 29.4405 27.1069H22.5846L23.0429 29.8609H29.4405C32.3305 29.8609 34.685 27.4356 34.685 24.4475V11.0011C34.685 8.01802 32.3353 5.58771 29.4405 5.58771L29.4308 5.59269ZM11.1596 2.8835C11.1596 2.81378 11.2175 2.75401 11.285 2.75401H23.3855C23.453 2.75401 23.5109 2.81378 23.5109 2.8835V5.59269H21.4314C21.388 5.39349 21.3156 5.19926 21.2095 5.015C20.8332 4.32774 20.1529 3.91937 19.3858 3.91937H15.2751C14.5128 3.91937 13.8325 4.32774 13.4513 5.015C13.35 5.19926 13.2777 5.39349 13.2294 5.59269H11.1499V2.8835H11.1596Z" fill="#455BEF"/>
</g>
<path d="M52.344 16.008H49.896V27H47.136V16.008H45.576V13.776H47.136V12.84C47.136 11.32 47.536 10.216 48.336 9.528C49.152 8.824 50.424 8.472 52.152 8.472V10.752C51.32 10.752 50.736 10.912 50.4 11.232C50.064 11.536 49.896 12.072 49.896 12.84V13.776H52.344V16.008ZM53.8568 20.328C53.8568 19 54.1288 17.824 54.6728 16.8C55.2328 15.776 55.9848 14.984 56.9288 14.424C57.8888 13.848 58.9448 13.56 60.0968 13.56C61.1368 13.56 62.0408 13.768 62.8088 14.184C63.5928 14.584 64.2168 15.088 64.6808 15.696V13.776H67.4408V27H64.6808V25.032C64.2168 25.656 63.5848 26.176 62.7848 26.592C61.9848 27.008 61.0728 27.216 60.0488 27.216C58.9128 27.216 57.8728 26.928 56.9288 26.352C55.9848 25.76 55.2328 24.944 54.6728 23.904C54.1288 22.848 53.8568 21.656 53.8568 20.328ZM64.6808 20.376C64.6808 19.464 64.4888 18.672 64.1048 18C63.7368 17.328 63.2488 16.816 62.6408 16.464C62.0328 16.112 61.3768 15.936 60.6728 15.936C59.9688 15.936 59.3128 16.112 58.7048 16.464C58.0968 16.8 57.6008 17.304 57.2168 17.976C56.8488 18.632 56.6648 19.416 56.6648 20.328C56.6648 21.24 56.8488 22.04 57.2168 22.728C57.6008 23.416 58.0968 23.944 58.7048 24.312C59.3288 24.664 59.9848 24.84 60.6728 24.84C61.3768 24.84 62.0328 24.664 62.6408 24.312C63.2488 23.96 63.7368 23.448 64.1048 22.776C64.4888 22.088 64.6808 21.288 64.6808 20.376ZM76.1464 24.552L79.8904 13.776H82.7944L77.7544 27H74.4904L69.4744 13.776H72.4024L76.1464 24.552ZM90.5985 27.216C89.3505 27.216 88.2225 26.936 87.2145 26.376C86.2065 25.8 85.4145 25 84.8385 23.976C84.2625 22.936 83.9745 21.736 83.9745 20.376C83.9745 19.032 84.2705 17.84 84.8625 16.8C85.4545 15.76 86.2625 14.96 87.2865 14.4C88.3105 13.84 89.4545 13.56 90.7185 13.56C91.9825 13.56 93.1265 13.84 94.1505 14.4C95.1745 14.96 95.9825 15.76 96.5745 16.8C97.1665 17.84 97.4625 19.032 97.4625 20.376C97.4625 21.72 97.1585 22.912 96.5505 23.952C95.9425 24.992 95.1105 25.8 94.0545 26.376C93.0145 26.936 91.8625 27.216 90.5985 27.216ZM90.5985 24.84C91.3025 24.84 91.9585 24.672 92.5665 24.336C93.1905 24 93.6945 23.496 94.0785 22.824C94.4625 22.152 94.6545 21.336 94.6545 20.376C94.6545 19.416 94.4705 18.608 94.1025 17.952C93.7345 17.28 93.2465 16.776 92.6385 16.44C92.0305 16.104 91.3745 15.936 90.6705 15.936C89.9665 15.936 89.3105 16.104 88.7025 16.44C88.1105 16.776 87.6385 17.28 87.2865 17.952C86.9345 18.608 86.7585 19.416 86.7585 20.376C86.7585 21.8 87.1185 22.904 87.8385 23.688C88.5745 24.456 89.4945 24.84 90.5985 24.84Z" fill="black"/>
<path d="M102.903 15.696C103.303 15.024 103.831 14.504 104.487 14.136C105.159 13.752 105.951 13.56 106.863 13.56V16.392H106.167C105.095 16.392 104.279 16.664 103.719 17.208C103.175 17.752 102.903 18.696 102.903 20.04V27H100.167V13.776H102.903V15.696ZM110.77 12.024C110.274 12.024 109.858 11.856 109.522 11.52C109.186 11.184 109.018 10.768 109.018 10.272C109.018 9.776 109.186 9.36 109.522 9.024C109.858 8.688 110.274 8.52 110.77 8.52C111.25 8.52 111.658 8.688 111.994 9.024C112.33 9.36 112.498 9.776 112.498 10.272C112.498 10.768 112.33 11.184 111.994 11.52C111.658 11.856 111.25 12.024 110.77 12.024ZM112.114 13.776V27H109.378V13.776H112.114ZM118.898 16.008V23.328C118.898 23.824 119.01 24.184 119.234 24.408C119.474 24.616 119.874 24.72 120.434 24.72H122.114V27H119.954C118.722 27 117.778 26.712 117.122 26.136C116.466 25.56 116.138 24.624 116.138 23.328V16.008H114.578V13.776H116.138V10.488H118.898V13.776H122.114V16.008H118.898ZM136.756 20.064C136.756 20.56 136.724 21.008 136.66 21.408H126.556C126.636 22.464 127.028 23.312 127.732 23.952C128.436 24.592 129.3 24.912 130.324 24.912C131.796 24.912 132.836 24.296 133.444 23.064H136.396C135.996 24.28 135.268 25.28 134.212 26.064C133.172 26.832 131.876 27.216 130.324 27.216C129.06 27.216 127.924 26.936 126.916 26.376C125.924 25.8 125.14 25 124.564 23.976C124.004 22.936 123.724 21.736 123.724 20.376C123.724 19.016 123.996 17.824 124.54 16.8C125.1 15.76 125.876 14.96 126.868 14.4C127.876 13.84 129.028 13.56 130.324 13.56C131.572 13.56 132.684 13.832 133.66 14.376C134.636 14.92 135.396 15.688 135.94 16.68C136.484 17.656 136.756 18.784 136.756 20.064ZM133.9 19.2C133.884 18.192 133.524 17.384 132.82 16.776C132.116 16.168 131.244 15.864 130.204 15.864C129.26 15.864 128.452 16.168 127.78 16.776C127.108 17.368 126.708 18.176 126.58 19.2H133.9ZM144.248 27.216C143.208 27.216 142.272 27.032 141.44 26.664C140.624 26.28 139.976 25.768 139.496 25.128C139.016 24.472 138.76 23.744 138.728 22.944H141.56C141.608 23.504 141.872 23.976 142.352 24.36C142.848 24.728 143.464 24.912 144.2 24.912C144.968 24.912 145.56 24.768 145.976 24.48C146.408 24.176 146.624 23.792 146.624 23.328C146.624 22.832 146.384 22.464 145.904 22.224C145.44 21.984 144.696 21.72 143.672 21.432C142.68 21.16 141.872 20.896 141.248 20.64C140.624 20.384 140.08 19.992 139.616 19.464C139.168 18.936 138.944 18.24 138.944 17.376C138.944 16.672 139.152 16.032 139.568 15.456C139.984 14.864 140.576 14.4 141.344 14.064C142.128 13.728 143.024 13.56 144.032 13.56C145.536 13.56 146.744 13.944 147.656 14.712C148.584 15.464 149.08 16.496 149.144 17.808H146.408C146.36 17.216 146.12 16.744 145.688 16.392C145.256 16.04 144.672 15.864 143.936 15.864C143.216 15.864 142.664 16 142.28 16.272C141.896 16.544 141.704 16.904 141.704 17.352C141.704 17.704 141.832 18 142.088 18.24C142.344 18.48 142.656 18.672 143.024 18.816C143.392 18.944 143.936 19.112 144.656 19.32C145.616 19.576 146.4 19.84 147.008 20.112C147.632 20.368 148.168 20.752 148.616 21.264C149.064 21.776 149.296 22.456 149.312 23.304C149.312 24.056 149.104 24.728 148.688 25.32C148.272 25.912 147.68 26.376 146.912 26.712C146.16 27.048 145.272 27.216 144.248 27.216Z" fill="#455BEF"/>
<defs>
<clipPath id="clip0_121_276">
<rect width="34.6753" height="38.1429" fill="white"/>
</clipPath>
</defs>
</svg>
