<svg width="93" height="99" viewBox="0 0 93 99" fill="none" xmlns="http://www.w3.org/2000/svg">
<path d="M78.9445 14.5086H70.2252V7.48944C70.2252 3.36154 66.8596 0 62.7266 0H30.2734C26.1404 0 22.7748 3.36154 22.7748 7.48944V14.5086H14.0555C6.31277 14.5086 0 20.8137 0 28.547V63.4513C0 71.202 6.31277 77.4896 14.0555 77.4896H31.2151L32.4358 70.3485H14.0555C10.2539 70.3485 7.14982 67.2482 7.14982 63.4513V28.547C7.14982 24.75 10.2539 21.6497 14.0555 21.6497H40.5273L43.5093 26.5962C43.9278 27.2929 44.0848 28.129 43.9452 28.9302L36.8477 70.3485L35.627 77.4896L35.1736 80.1545C35.0341 80.9034 35.1736 81.6698 35.5398 82.349L43.5267 97.1712C44.8172 99.5748 48.2526 99.5748 49.543 97.1712L57.5299 82.349C57.8961 81.6698 58.0182 80.9034 57.8961 80.1545L57.4427 77.4896L56.222 70.3485L49.1071 28.9302C48.9676 28.129 49.1071 27.2929 49.543 26.5962L52.525 21.6497H78.9968C82.7984 21.6497 85.9025 24.75 85.9025 28.547V63.4513C85.9025 67.2482 82.7984 70.3485 78.9968 70.3485H60.6165L61.8372 77.4896H78.9968C86.757 77.4896 93.0523 71.1846 93.0523 63.4513V28.547C93.0523 20.7963 86.7395 14.5086 78.9968 14.5086H78.9445ZM29.9421 7.48944C29.9421 7.29785 30.099 7.15852 30.2734 7.15852H62.7266C62.9184 7.15852 63.0579 7.31527 63.0579 7.48944V14.5086H57.4776C57.3555 14.0035 57.1637 13.4984 56.8847 13.0107C55.8732 11.2342 54.0422 10.1717 52.0019 10.1717H40.9807C38.9404 10.1717 37.1093 11.2342 36.0979 13.0107C35.8189 13.481 35.627 13.9861 35.505 14.5086H29.9246V7.48944H29.9421Z" fill="white"/>
</svg>
