<svg width="129" height="20" viewBox="0 0 129 20" fill="none" xmlns="http://www.w3.org/2000/svg">
<path d="M7.344 8.008H4.896V19H2.136V8.008H0.576V5.776H2.136V4.84C2.136 3.32 2.536 2.216 3.336 1.528C4.152 0.823999 5.424 0.472 7.152 0.472V2.752C6.32 2.752 5.736 2.912 5.4 3.232C5.064 3.536 4.896 4.072 4.896 4.84V5.776H7.344V8.008ZM12.5048 7.696C12.9048 7.024 13.4328 6.504 14.0888 6.136C14.7608 5.752 15.5528 5.56 16.4648 5.56V8.392H15.7688C14.6968 8.392 13.8808 8.664 13.3208 9.208C12.7768 9.752 12.5048 10.696 12.5048 12.04V19H9.76875V5.776H12.5048V7.696ZM31.0997 12.064C31.0997 12.56 31.0677 13.008 31.0037 13.408H20.8997C20.9797 14.464 21.3717 15.312 22.0757 15.952C22.7797 16.592 23.6437 16.912 24.6677 16.912C26.1397 16.912 27.1797 16.296 27.7877 15.064H30.7397C30.3397 16.28 29.6117 17.28 28.5557 18.064C27.5157 18.832 26.2197 19.216 24.6677 19.216C23.4037 19.216 22.2677 18.936 21.2597 18.376C20.2677 17.8 19.4837 17 18.9077 15.976C18.3477 14.936 18.0677 13.736 18.0677 12.376C18.0677 11.016 18.3397 9.824 18.8837 8.8C19.4437 7.76 20.2197 6.96 21.2117 6.4C22.2197 5.84 23.3717 5.56 24.6677 5.56C25.9157 5.56 27.0277 5.832 28.0037 6.376C28.9797 6.92 29.7397 7.688 30.2837 8.68C30.8277 9.656 31.0997 10.784 31.0997 12.064ZM28.2437 11.2C28.2277 10.192 27.8677 9.384 27.1637 8.776C26.4597 8.168 25.5877 7.864 24.5477 7.864C23.6037 7.864 22.7957 8.168 22.1237 8.776C21.4517 9.368 21.0517 10.176 20.9237 11.2H28.2437ZM45.9122 12.064C45.9122 12.56 45.8802 13.008 45.8162 13.408H35.7122C35.7922 14.464 36.1842 15.312 36.8882 15.952C37.5922 16.592 38.4562 16.912 39.4802 16.912C40.9522 16.912 41.9922 16.296 42.6002 15.064H45.5522C45.1522 16.28 44.4242 17.28 43.3682 18.064C42.3282 18.832 41.0322 19.216 39.4802 19.216C38.2162 19.216 37.0802 18.936 36.0722 18.376C35.0802 17.8 34.2962 17 33.7202 15.976C33.1602 14.936 32.8802 13.736 32.8802 12.376C32.8802 11.016 33.1522 9.824 33.6962 8.8C34.2562 7.76 35.0322 6.96 36.0242 6.4C37.0322 5.84 38.1842 5.56 39.4802 5.56C40.7282 5.56 41.8402 5.832 42.8162 6.376C43.7922 6.92 44.5522 7.688 45.0962 8.68C45.6402 9.656 45.9122 10.784 45.9122 12.064ZM43.0562 11.2C43.0402 10.192 42.6802 9.384 41.9762 8.776C41.2722 8.168 40.4002 7.864 39.3602 7.864C38.4162 7.864 37.6082 8.168 36.9362 8.776C36.2642 9.368 35.8642 10.176 35.7362 11.2H43.0562Z" fill="black"/>
<path d="M51.3407 1.24V19H48.6047V1.24H51.3407ZM54.0208 12.328C54.0208 11 54.2928 9.824 54.8368 8.8C55.3968 7.776 56.1488 6.984 57.0928 6.424C58.0528 5.848 59.1088 5.56 60.2608 5.56C61.3008 5.56 62.2048 5.768 62.9728 6.184C63.7568 6.584 64.3808 7.088 64.8448 7.696V5.776H67.6048V19H64.8448V17.032C64.3808 17.656 63.7488 18.176 62.9488 18.592C62.1488 19.008 61.2368 19.216 60.2128 19.216C59.0768 19.216 58.0368 18.928 57.0928 18.352C56.1488 17.76 55.3968 16.944 54.8368 15.904C54.2928 14.848 54.0208 13.656 54.0208 12.328ZM64.8448 12.376C64.8448 11.464 64.6528 10.672 64.2688 10C63.9008 9.328 63.4128 8.816 62.8048 8.464C62.1968 8.112 61.5408 7.936 60.8368 7.936C60.1328 7.936 59.4768 8.112 58.8688 8.464C58.2608 8.8 57.7648 9.304 57.3808 9.976C57.0128 10.632 56.8288 11.416 56.8288 12.328C56.8288 13.24 57.0128 14.04 57.3808 14.728C57.7648 15.416 58.2608 15.944 58.8688 16.312C59.4928 16.664 60.1488 16.84 60.8368 16.84C61.5408 16.84 62.1968 16.664 62.8048 16.312C63.4128 15.96 63.9008 15.448 64.2688 14.776C64.6528 14.088 64.8448 13.288 64.8448 12.376ZM77.8704 5.56C78.9104 5.56 79.8384 5.776 80.6544 6.208C81.4864 6.64 82.1344 7.28 82.5984 8.128C83.0624 8.976 83.2944 10 83.2944 11.2V19H80.5824V11.608C80.5824 10.424 80.2864 9.52 79.6944 8.896C79.1024 8.256 78.2944 7.936 77.2704 7.936C76.2464 7.936 75.4304 8.256 74.8224 8.896C74.2304 9.52 73.9344 10.424 73.9344 11.608V19H71.1984V5.776H73.9344V7.288C74.3824 6.744 74.9504 6.32 75.6384 6.016C76.3424 5.712 77.0864 5.56 77.8704 5.56ZM85.8724 12.376C85.8724 11.016 86.1444 9.824 86.6884 8.8C87.2484 7.76 88.0164 6.96 88.9924 6.4C89.9684 5.84 91.0884 5.56 92.3524 5.56C93.9524 5.56 95.2724 5.944 96.3124 6.712C97.3684 7.464 98.0804 8.544 98.4484 9.952H95.4964C95.2564 9.296 94.8724 8.784 94.3444 8.416C93.8164 8.048 93.1524 7.864 92.3524 7.864C91.2324 7.864 90.3364 8.264 89.6644 9.064C89.0084 9.848 88.6804 10.952 88.6804 12.376C88.6804 13.8 89.0084 14.912 89.6644 15.712C90.3364 16.512 91.2324 16.912 92.3524 16.912C93.9364 16.912 94.9844 16.216 95.4964 14.824H98.4484C98.0644 16.168 97.3444 17.24 96.2884 18.04C95.2324 18.824 93.9204 19.216 92.3524 19.216C91.0884 19.216 89.9684 18.936 88.9924 18.376C88.0164 17.8 87.2484 17 86.6884 15.976C86.1444 14.936 85.8724 13.736 85.8724 12.376ZM113.295 12.064C113.295 12.56 113.263 13.008 113.199 13.408H103.095C103.175 14.464 103.567 15.312 104.271 15.952C104.975 16.592 105.839 16.912 106.863 16.912C108.335 16.912 109.375 16.296 109.983 15.064H112.935C112.535 16.28 111.807 17.28 110.751 18.064C109.711 18.832 108.415 19.216 106.863 19.216C105.599 19.216 104.463 18.936 103.455 18.376C102.463 17.8 101.679 17 101.103 15.976C100.543 14.936 100.263 13.736 100.263 12.376C100.263 11.016 100.535 9.824 101.079 8.8C101.639 7.76 102.415 6.96 103.407 6.4C104.415 5.84 105.567 5.56 106.863 5.56C108.111 5.56 109.223 5.832 110.199 6.376C111.175 6.92 111.935 7.688 112.479 8.68C113.023 9.656 113.295 10.784 113.295 12.064ZM110.439 11.2C110.423 10.192 110.063 9.384 109.359 8.776C108.655 8.168 107.783 7.864 106.743 7.864C105.799 7.864 104.991 8.168 104.319 8.776C103.647 9.368 103.247 10.176 103.119 11.2H110.439ZM118.724 7.696C119.124 7.024 119.652 6.504 120.308 6.136C120.98 5.752 121.772 5.56 122.684 5.56V8.392H121.988C120.916 8.392 120.1 8.664 119.54 9.208C118.996 9.752 118.724 10.696 118.724 12.04V19H115.988V5.776H118.724V7.696ZM126.59 4.024C126.094 4.024 125.678 3.856 125.342 3.52C125.006 3.184 124.838 2.768 124.838 2.272C124.838 1.776 125.006 1.36 125.342 1.024C125.678 0.687999 126.094 0.519999 126.59 0.519999C127.07 0.519999 127.478 0.687999 127.814 1.024C128.15 1.36 128.318 1.776 128.318 2.272C128.318 2.768 128.15 3.184 127.814 3.52C127.478 3.856 127.07 4.024 126.59 4.024ZM127.934 5.776V19H125.198V5.776H127.934Z" fill="#455BEF"/>
</svg>
