<svg width="132" height="39" viewBox="0 0 132 39" fill="none" xmlns="http://www.w3.org/2000/svg">
<g clip-path="url(#clip0_121_276)">
<path d="M29.4308 5.59269H26.179V2.8835C26.179 1.29484 24.9245 0 23.3855 0H11.285C9.74595 0 8.49152 1.29484 8.49152 2.8835V5.59269H5.23965C2.34964 5.59269 0 8.01802 0 11.0011V24.4475C0 27.4306 2.34964 29.8609 5.24448 29.8609H11.6421L12.1004 27.1069H5.24448C3.82601 27.1069 2.66807 25.9166 2.66807 24.4475V11.0011C2.66807 9.53696 3.82118 8.34173 5.24448 8.34173H15.111L16.2207 10.2491C16.3751 10.518 16.4378 10.8368 16.3848 11.1455L13.736 27.1019L13.2777 29.8559L13.1088 30.8868C13.0605 31.1756 13.1088 31.4745 13.2439 31.7334L16.2207 37.4456C16.7032 38.367 17.9866 38.367 18.4642 37.4456L21.4411 31.7334C21.5762 31.4745 21.6196 31.1806 21.5762 30.8868L21.4073 29.8559L20.949 27.1019L18.3002 11.1455C18.2471 10.8368 18.305 10.518 18.4642 10.2491L19.5739 8.34173H29.4405C30.859 8.34173 32.0169 9.53198 32.0169 11.0011V24.4475C32.0169 25.9116 30.8638 27.1069 29.4405 27.1069H22.5846L23.0429 29.8609H29.4405C32.3305 29.8609 34.685 27.4356 34.685 24.4475V11.0011C34.685 8.01802 32.3353 5.58771 29.4405 5.58771L29.4308 5.59269ZM11.1596 2.8835C11.1596 2.81378 11.2175 2.75401 11.285 2.75401H23.3855C23.453 2.75401 23.5109 2.81378 23.5109 2.8835V5.59269H21.4314C21.388 5.39349 21.3156 5.19926 21.2095 5.015C20.8332 4.32774 20.1529 3.91937 19.3858 3.91937H15.2751C14.5128 3.91937 13.8325 4.32774 13.4513 5.015C13.35 5.19926 13.2777 5.39349 13.2294 5.59269H11.1499V2.8835H11.1596Z" fill="#455BEF"/>
</g>
<path d="M51.6 27.216C50.56 27.216 49.624 27.032 48.792 26.664C47.976 26.28 47.328 25.768 46.848 25.128C46.368 24.472 46.112 23.744 46.08 22.944H48.912C48.96 23.504 49.224 23.976 49.704 24.36C50.2 24.728 50.816 24.912 51.552 24.912C52.32 24.912 52.912 24.768 53.328 24.48C53.76 24.176 53.976 23.792 53.976 23.328C53.976 22.832 53.736 22.464 53.256 22.224C52.792 21.984 52.048 21.72 51.024 21.432C50.032 21.16 49.224 20.896 48.6 20.64C47.976 20.384 47.432 19.992 46.968 19.464C46.52 18.936 46.296 18.24 46.296 17.376C46.296 16.672 46.504 16.032 46.92 15.456C47.336 14.864 47.928 14.4 48.696 14.064C49.48 13.728 50.376 13.56 51.384 13.56C52.888 13.56 54.096 13.944 55.008 14.712C55.936 15.464 56.432 16.496 56.496 17.808H53.76C53.712 17.216 53.472 16.744 53.04 16.392C52.608 16.04 52.024 15.864 51.288 15.864C50.568 15.864 50.016 16 49.632 16.272C49.248 16.544 49.056 16.904 49.056 17.352C49.056 17.704 49.184 18 49.44 18.24C49.696 18.48 50.008 18.672 50.376 18.816C50.744 18.944 51.288 19.112 52.008 19.32C52.968 19.576 53.752 19.84 54.36 20.112C54.984 20.368 55.52 20.752 55.968 21.264C56.416 21.776 56.648 22.456 56.664 23.304C56.664 24.056 56.456 24.728 56.04 25.32C55.624 25.912 55.032 26.376 54.264 26.712C53.512 27.048 52.624 27.216 51.6 27.216ZM71.5963 13.776V27H68.8603V25.44C68.4283 25.984 67.8603 26.416 67.1563 26.736C66.4683 27.04 65.7323 27.192 64.9483 27.192C63.9083 27.192 62.9723 26.976 62.1403 26.544C61.3243 26.112 60.6763 25.472 60.1963 24.624C59.7323 23.776 59.5003 22.752 59.5003 21.552V13.776H62.2123V21.144C62.2123 22.328 62.5083 23.24 63.1003 23.88C63.6923 24.504 64.5003 24.816 65.5243 24.816C66.5483 24.816 67.3563 24.504 67.9483 23.88C68.5563 23.24 68.8603 22.328 68.8603 21.144V13.776H71.5963ZM77.9423 15.744C78.4063 15.104 79.0383 14.584 79.8383 14.184C80.6543 13.768 81.5583 13.56 82.5503 13.56C83.7183 13.56 84.7743 13.84 85.7183 14.4C86.6623 14.96 87.4063 15.76 87.9503 16.8C88.4943 17.824 88.7663 19 88.7663 20.328C88.7663 21.656 88.4943 22.848 87.9503 23.904C87.4063 24.944 86.6543 25.76 85.6943 26.352C84.7503 26.928 83.7023 27.216 82.5503 27.216C81.5263 27.216 80.6143 27.016 79.8143 26.616C79.0303 26.216 78.4063 25.704 77.9423 25.08V27H75.2063V9.24H77.9423V15.744ZM85.9823 20.328C85.9823 19.416 85.7903 18.632 85.4062 17.976C85.0383 17.304 84.5423 16.8 83.9183 16.464C83.3103 16.112 82.6543 15.936 81.9503 15.936C81.2623 15.936 80.6063 16.112 79.9823 16.464C79.3743 16.816 78.8783 17.328 78.4943 18C78.1263 18.672 77.9423 19.464 77.9423 20.376C77.9423 21.288 78.1263 22.088 78.4943 22.776C78.8783 23.448 79.3743 23.96 79.9823 24.312C80.6063 24.664 81.2623 24.84 81.9503 24.84C82.6543 24.84 83.3103 24.664 83.9183 24.312C84.5423 23.944 85.0383 23.416 85.4062 22.728C85.7903 22.04 85.9823 21.24 85.9823 20.328Z" fill="black"/>
<path d="M107.48 13.56C108.52 13.56 109.448 13.776 110.264 14.208C111.096 14.64 111.744 15.28 112.208 16.128C112.688 16.976 112.928 18 112.928 19.2V27H110.216V19.608C110.216 18.424 109.92 17.52 109.328 16.896C108.736 16.256 107.928 15.936 106.904 15.936C105.88 15.936 105.064 16.256 104.456 16.896C103.864 17.52 103.568 18.424 103.568 19.608V27H100.856V19.608C100.856 18.424 100.56 17.52 99.9679 16.896C99.3759 16.256 98.5679 15.936 97.5439 15.936C96.5199 15.936 95.7039 16.256 95.0959 16.896C94.5039 17.52 94.2079 18.424 94.2079 19.608V27H91.4719V13.776H94.2079V15.288C94.6559 14.744 95.2239 14.32 95.9119 14.016C96.5999 13.712 97.3359 13.56 98.1199 13.56C99.1759 13.56 100.12 13.784 100.952 14.232C101.784 14.68 102.424 15.328 102.872 16.176C103.272 15.376 103.896 14.744 104.744 14.28C105.592 13.8 106.504 13.56 107.48 13.56ZM117.801 12.024C117.305 12.024 116.889 11.856 116.553 11.52C116.217 11.184 116.049 10.768 116.049 10.272C116.049 9.776 116.217 9.36 116.553 9.024C116.889 8.688 117.305 8.52 117.801 8.52C118.281 8.52 118.689 8.688 119.025 9.024C119.361 9.36 119.529 9.776 119.529 10.272C119.529 10.768 119.361 11.184 119.025 11.52C118.689 11.856 118.281 12.024 117.801 12.024ZM119.145 13.776V27H116.409V13.776H119.145ZM125.93 16.008V23.328C125.93 23.824 126.042 24.184 126.266 24.408C126.506 24.616 126.906 24.72 127.466 24.72H129.146V27H126.986C125.754 27 124.81 26.712 124.154 26.136C123.498 25.56 123.17 24.624 123.17 23.328V16.008H121.61V13.776H123.17V10.488H125.93V13.776H129.146V16.008H125.93Z" fill="#455BEF"/>
<defs>
<clipPath id="clip0_121_276">
<rect width="34.6753" height="38.1429" fill="white"/>
</clipPath>
</defs>
</svg>
